<svg width="40" height="40" viewBox="0 0 40 40" fill="none" xmlns="http://www.w3.org/2000/svg">
<circle opacity="0.6" cx="20" cy="20" r="20" fill="white"/>
<path fill-rule="evenodd" clip-rule="evenodd" d="M13.7 11L16.4 11C17.8794 11 19.1 12.1861 19.1 13.6753L19.1 16.7059C19.1 18.1951 17.8794 19.3813 16.4 19.3813H13.7C12.2206 19.3813 11 18.1951 11 16.7059L11 13.6753C11 12.1861 12.2206 11 13.7 11ZM16.4 12.8L13.7 12.8C13.1912 12.8 12.8 13.2036 12.8 13.6753L12.8 16.7059C12.8 17.1777 13.1912 17.5813 13.7 17.5813H16.4C16.9088 17.5813 17.3 17.1777 17.3 16.7059L17.3 13.6753C17.3 13.2036 16.9088 12.8 16.4 12.8ZM23.6 12.8C23.0912 12.8 22.7 13.2036 22.7 13.6753L22.7 16.7059C22.7 17.1777 23.0912 17.5813 23.6 17.5813H26.3C26.8088 17.5813 27.2 17.1777 27.2 16.7059L27.2 13.6753C27.2 13.2036 26.8088 12.8 26.3 12.8L23.6 12.8ZM20.9 13.6753C20.9 12.1861 22.1206 11 23.6 11L26.3 11C27.7794 11 29 12.1861 29 13.6753L29 16.7059C29 18.1951 27.7794 19.3813 26.3 19.3813H23.6C22.1206 19.3813 20.9 18.1951 20.9 16.7059L20.9 13.6753ZM13.7 22.4188C13.1912 22.4188 12.8 22.8223 12.8 23.2941L12.8 26.3247C12.8 26.7964 13.1912 27.2 13.7 27.2H16.4C16.9088 27.2 17.3 26.7964 17.3 26.3247L17.3 23.2941C17.3 22.8223 16.9088 22.4188 16.4 22.4188H13.7ZM11 23.2941C11 21.8049 12.2206 20.6188 13.7 20.6188H16.4C17.8794 20.6188 19.1 21.8049 19.1 23.2941L19.1 26.3247C19.1 27.8139 17.8794 29 16.4 29H13.7C12.2206 29 11 27.8139 11 26.3247L11 23.2941ZM23.6 22.4188C23.0912 22.4188 22.7 22.8223 22.7 23.2941L22.7 26.3247C22.7 26.7964 23.0912 27.2 23.6 27.2H26.3C26.8088 27.2 27.2 26.7964 27.2 26.3247V23.2941C27.2 22.8223 26.8088 22.4188 26.3 22.4188H23.6ZM20.9 23.2941C20.9 21.8049 22.1206 20.6188 23.6 20.6188H26.3C27.7794 20.6188 29 21.8049 29 23.2941V26.3247C29 27.8139 27.7794 29 26.3 29H23.6C22.1206 29 20.9 27.8139 20.9 26.3247V23.2941Z" fill="#012850"/>
</svg>
