<svg width="38" height="38" viewBox="0 0 38 38" fill="none" xmlns="http://www.w3.org/2000/svg">
<path fill-rule="evenodd" clip-rule="evenodd" d="M19.06 2.27002C10.16 2.27002 2.92 9.45002 2.92 18.29C2.92 21.79 4.06 25.04 5.99 27.68L3.97 33.63L10.17 31.66C12.72 33.33 15.77 34.31 19.05 34.31C27.95 34.31 35.19 27.13 35.19 18.3C35.19 9.47002 27.96 2.27002 19.06 2.27002Z" fill="url(#paint0_linear_318_1885)"/>
<path fill-rule="evenodd" clip-rule="evenodd" d="M37.26 18.15C37.26 28.17 29.07 36.3 18.97 36.3C15.76 36.3 12.75 35.48 10.13 34.04L0 37.26L3.3 27.52C1.63 24.78 0.68 21.58 0.68 18.15C0.68 8.13 8.87 0 18.97 0C29.07 0 37.26 8.13 37.26 18.15ZM18.97 2.89C10.49 2.89 3.59 9.73 3.59 18.15C3.59 21.49 4.68 24.58 6.52 27.1L4.6 32.77L10.51 30.89C12.94 32.48 15.85 33.41 18.97 33.41C27.45 33.41 34.35 26.57 34.35 18.15C34.35 9.73 27.45 2.89 18.97 2.89ZM28.2 22.33C28.09 22.14 27.79 22.03 27.34 21.81C26.89 21.59 24.69 20.51 24.28 20.36C23.87 20.21 23.57 20.14 23.27 20.58C22.97 21.03 22.11 22.03 21.85 22.32C21.59 22.62 21.33 22.65 20.88 22.43C20.43 22.21 18.99 21.74 17.27 20.22C15.94 19.04 15.04 17.58 14.78 17.14C14.52 16.7 14.75 16.45 14.98 16.23C15.18 16.03 15.43 15.71 15.65 15.45C15.87 15.19 15.95 15 16.1 14.71C16.25 14.41 16.18 14.15 16.06 13.93C15.95 13.71 15.05 11.52 14.68 10.63C14.31 9.74 13.93 9.77 13.67 9.77C13.41 9.77 12.93 9.85 12.93 9.85C12.93 9.85 12.03 9.96 11.62 10.41C11.21 10.85 10.05 11.93 10.05 14.12C10.05 16.31 11.66 18.43 11.88 18.72C12.1 19.02 14.98 23.66 19.54 25.44C24.1 27.22 24.1 26.63 24.92 26.55C25.74 26.48 27.57 25.47 27.95 24.44C28.32 23.4 28.32 22.51 28.21 22.33H28.2Z" fill="white"/>
<defs>
<linearGradient id="paint0_linear_318_1885" x1="19.06" y1="2.27002" x2="19.06" y2="34.3" gradientUnits="userSpaceOnUse">
<stop stop-color="#00C13E"/>
<stop offset="1" stop-color="#008530"/>
</linearGradient>
</defs>
</svg>
